<svg xmlns="http://www.w3.org/2000/svg" width="24" height="25" fill="none" viewBox="0 0 24 25"><path fill="#607B96" d="M22.383 6.15593C21.6196 6.49362 20.81 6.7154 19.981 6.81393C20.8548 6.29136 21.5087 5.46894 21.821 4.49993C21.001 4.98793 20.102 5.32993 19.165 5.51493C18.5356 4.84151 17.7014 4.39489 16.792 4.24451C15.8826 4.09413 14.9489 4.24842 14.1363 4.68338C13.3236 5.11834 12.6774 5.80961 12.2981 6.64972C11.9188 7.48983 11.8277 8.43171 12.039 9.32893C10.3761 9.24558 8.74933 8.81345 7.26429 8.06059C5.77924 7.30773 4.46913 6.25097 3.419 4.95893C3.04729 5.59738 2.85196 6.32315 2.853 7.06193C2.853 8.51193 3.591 9.79293 4.713 10.5429C4.04901 10.522 3.39963 10.3427 2.819 10.0199V10.0719C2.8192 11.0376 3.15337 11.9735 3.76485 12.721C4.37633 13.4684 5.22748 13.9814 6.174 14.1729C5.55761 14.34 4.91131 14.3646 4.284 14.2449C4.55087 15.0762 5.07101 15.8031 5.77159 16.324C6.47218 16.8449 7.31813 17.1337 8.191 17.1499C7.32348 17.8313 6.33018 18.3349 5.26788 18.6321C4.20558 18.9293 3.09513 19.0142 2 18.8819C3.9117 20.1114 6.1371 20.764 8.41 20.7619C16.103 20.7619 20.31 14.3889 20.31 8.86193C20.31 8.68193 20.305 8.49993 20.297 8.32193C21.1159 7.73009 21.8226 6.99695 22.384 6.15693L22.383 6.15593Z"/></svg>